<mxfile host="www.draw.io" modified="2020-01-20T16:55:53.678Z" agent="Mozilla/5.0 (Macintosh; Intel Mac OS X 10_11_6) AppleWebKit/537.36 (KHTML, like Gecko) Chrome/79.0.3945.130 Safari/537.36" etag="3KBNFpn9JRm1igxNMPKm" version="12.5.5" type="github" pages="2">
  <diagram id="C5RBs43oDa-KdzZeNtuy" name="Page-1">
    <mxGraphModel dx="928" dy="500" grid="1" gridSize="10" guides="1" tooltips="1" connect="1" arrows="1" fold="1" page="1" pageScale="1" pageWidth="827" pageHeight="1169" math="0" shadow="0">
      <root>
        <mxCell id="WIyWlLk6GJQsqaUBKTNV-0"/>
        <mxCell id="WIyWlLk6GJQsqaUBKTNV-1" parent="WIyWlLk6GJQsqaUBKTNV-0"/>
        <mxCell id="zkfFHV4jXpPFQw0GAbJ--0" value="User" style="swimlane;fontStyle=2;align=center;verticalAlign=top;childLayout=stackLayout;horizontal=1;startSize=26;horizontalStack=0;resizeParent=1;resizeLast=0;collapsible=1;marginBottom=0;rounded=0;shadow=0;strokeWidth=1;" parent="WIyWlLk6GJQsqaUBKTNV-1" vertex="1">
          <mxGeometry x="620" y="210" width="160" height="138" as="geometry">
            <mxRectangle x="230" y="140" width="160" height="26" as="alternateBounds"/>
          </mxGeometry>
        </mxCell>
        <mxCell id="zkfFHV4jXpPFQw0GAbJ--1" value="Name" style="text;align=left;verticalAlign=top;spacingLeft=4;spacingRight=4;overflow=hidden;rotatable=0;points=[[0,0.5],[1,0.5]];portConstraint=eastwest;" parent="zkfFHV4jXpPFQw0GAbJ--0" vertex="1">
          <mxGeometry y="26" width="160" height="26" as="geometry"/>
        </mxCell>
        <mxCell id="zkfFHV4jXpPFQw0GAbJ--2" value="Phone Number" style="text;align=left;verticalAlign=top;spacingLeft=4;spacingRight=4;overflow=hidden;rotatable=0;points=[[0,0.5],[1,0.5]];portConstraint=eastwest;rounded=0;shadow=0;html=0;" parent="zkfFHV4jXpPFQw0GAbJ--0" vertex="1">
          <mxGeometry y="52" width="160" height="26" as="geometry"/>
        </mxCell>
        <mxCell id="zkfFHV4jXpPFQw0GAbJ--3" value="Email Address" style="text;align=left;verticalAlign=top;spacingLeft=4;spacingRight=4;overflow=hidden;rotatable=0;points=[[0,0.5],[1,0.5]];portConstraint=eastwest;rounded=0;shadow=0;html=0;" parent="zkfFHV4jXpPFQw0GAbJ--0" vertex="1">
          <mxGeometry y="78" width="160" height="26" as="geometry"/>
        </mxCell>
        <mxCell id="zkfFHV4jXpPFQw0GAbJ--4" value="" style="line;html=1;strokeWidth=1;align=left;verticalAlign=middle;spacingTop=-1;spacingLeft=3;spacingRight=3;rotatable=0;labelPosition=right;points=[];portConstraint=eastwest;" parent="zkfFHV4jXpPFQw0GAbJ--0" vertex="1">
          <mxGeometry y="104" width="160" height="8" as="geometry"/>
        </mxCell>
        <mxCell id="abvE3q79lOQdrKa4CvGL-0" value="Route" style="swimlane;fontStyle=2;align=center;verticalAlign=top;childLayout=stackLayout;horizontal=1;startSize=26;horizontalStack=0;resizeParent=1;resizeLast=0;collapsible=1;marginBottom=0;rounded=0;shadow=0;strokeWidth=1;" parent="WIyWlLk6GJQsqaUBKTNV-1" vertex="1">
          <mxGeometry x="10" y="20" width="160" height="146" as="geometry">
            <mxRectangle x="230" y="140" width="160" height="26" as="alternateBounds"/>
          </mxGeometry>
        </mxCell>
        <mxCell id="abvE3q79lOQdrKa4CvGL-3" value="id_route" style="text;align=left;verticalAlign=top;spacingLeft=4;spacingRight=4;overflow=hidden;rotatable=0;points=[[0,0.5],[1,0.5]];portConstraint=eastwest;rounded=0;shadow=0;html=0;" parent="abvE3q79lOQdrKa4CvGL-0" vertex="1">
          <mxGeometry y="26" width="160" height="26" as="geometry"/>
        </mxCell>
        <mxCell id="abvE3q79lOQdrKa4CvGL-4" value="" style="line;html=1;strokeWidth=1;align=left;verticalAlign=middle;spacingTop=-1;spacingLeft=3;spacingRight=3;rotatable=0;labelPosition=right;points=[];portConstraint=eastwest;" parent="abvE3q79lOQdrKa4CvGL-0" vertex="1">
          <mxGeometry y="52" width="160" height="68" as="geometry"/>
        </mxCell>
        <mxCell id="abvE3q79lOQdrKa4CvGL-6" value="Permissions&#xa;" style="swimlane;fontStyle=2;align=center;verticalAlign=top;childLayout=stackLayout;horizontal=1;startSize=26;horizontalStack=0;resizeParent=1;resizeLast=0;collapsible=1;marginBottom=0;rounded=0;shadow=0;strokeWidth=1;" parent="WIyWlLk6GJQsqaUBKTNV-1" vertex="1">
          <mxGeometry x="250" y="20" width="160" height="140" as="geometry">
            <mxRectangle x="230" y="140" width="160" height="26" as="alternateBounds"/>
          </mxGeometry>
        </mxCell>
        <mxCell id="abvE3q79lOQdrKa4CvGL-20" value="id_permission" style="text;align=left;verticalAlign=top;spacingLeft=4;spacingRight=4;overflow=hidden;rotatable=0;points=[[0,0.5],[1,0.5]];portConstraint=eastwest;rounded=0;shadow=0;html=0;" parent="abvE3q79lOQdrKa4CvGL-6" vertex="1">
          <mxGeometry y="26" width="160" height="26" as="geometry"/>
        </mxCell>
        <mxCell id="abvE3q79lOQdrKa4CvGL-22" value="name" style="text;align=left;verticalAlign=top;spacingLeft=4;spacingRight=4;overflow=hidden;rotatable=0;points=[[0,0.5],[1,0.5]];portConstraint=eastwest;rounded=0;shadow=0;html=0;" parent="abvE3q79lOQdrKa4CvGL-6" vertex="1">
          <mxGeometry y="52" width="160" height="26" as="geometry"/>
        </mxCell>
        <mxCell id="abvE3q79lOQdrKa4CvGL-10" value="" style="line;html=1;strokeWidth=1;align=left;verticalAlign=middle;spacingTop=-1;spacingLeft=3;spacingRight=3;rotatable=0;labelPosition=right;points=[];portConstraint=eastwest;" parent="abvE3q79lOQdrKa4CvGL-6" vertex="1">
          <mxGeometry y="78" width="160" height="58" as="geometry"/>
        </mxCell>
        <mxCell id="abvE3q79lOQdrKa4CvGL-23" value="Rbac" style="swimlane;fontStyle=2;align=center;verticalAlign=top;childLayout=stackLayout;horizontal=1;startSize=26;horizontalStack=0;resizeParent=1;resizeLast=0;collapsible=1;marginBottom=0;rounded=0;shadow=0;strokeWidth=1;" parent="WIyWlLk6GJQsqaUBKTNV-1" vertex="1">
          <mxGeometry x="520" y="21" width="160" height="138" as="geometry">
            <mxRectangle x="230" y="140" width="160" height="26" as="alternateBounds"/>
          </mxGeometry>
        </mxCell>
        <mxCell id="abvE3q79lOQdrKa4CvGL-24" value="id_rbac" style="text;align=left;verticalAlign=top;spacingLeft=4;spacingRight=4;overflow=hidden;rotatable=0;points=[[0,0.5],[1,0.5]];portConstraint=eastwest;rounded=0;shadow=0;html=0;" parent="abvE3q79lOQdrKa4CvGL-23" vertex="1">
          <mxGeometry y="26" width="160" height="26" as="geometry"/>
        </mxCell>
        <mxCell id="abvE3q79lOQdrKa4CvGL-25" value="name" style="text;align=left;verticalAlign=top;spacingLeft=4;spacingRight=4;overflow=hidden;rotatable=0;points=[[0,0.5],[1,0.5]];portConstraint=eastwest;rounded=0;shadow=0;html=0;" parent="abvE3q79lOQdrKa4CvGL-23" vertex="1">
          <mxGeometry y="52" width="160" height="26" as="geometry"/>
        </mxCell>
        <mxCell id="abvE3q79lOQdrKa4CvGL-26" value="" style="line;html=1;strokeWidth=1;align=left;verticalAlign=middle;spacingTop=-1;spacingLeft=3;spacingRight=3;rotatable=0;labelPosition=right;points=[];portConstraint=eastwest;" parent="abvE3q79lOQdrKa4CvGL-23" vertex="1">
          <mxGeometry y="78" width="160" height="58" as="geometry"/>
        </mxCell>
        <mxCell id="abvE3q79lOQdrKa4CvGL-46" value="" style="endArrow=none;html=1;edgeStyle=orthogonalEdgeStyle;" parent="WIyWlLk6GJQsqaUBKTNV-1" target="abvE3q79lOQdrKa4CvGL-6" edge="1">
          <mxGeometry relative="1" as="geometry">
            <mxPoint x="170" y="110" as="sourcePoint"/>
            <mxPoint x="290" y="110" as="targetPoint"/>
          </mxGeometry>
        </mxCell>
        <mxCell id="abvE3q79lOQdrKa4CvGL-47" value="*" style="resizable=0;html=1;align=left;verticalAlign=bottom;labelBackgroundColor=#ffffff;fontSize=10;" parent="abvE3q79lOQdrKa4CvGL-46" connectable="0" vertex="1">
          <mxGeometry x="-1" relative="1" as="geometry"/>
        </mxCell>
        <mxCell id="abvE3q79lOQdrKa4CvGL-48" value="*" style="resizable=0;html=1;align=right;verticalAlign=bottom;labelBackgroundColor=#ffffff;fontSize=10;" parent="abvE3q79lOQdrKa4CvGL-46" connectable="0" vertex="1">
          <mxGeometry x="1" relative="1" as="geometry"/>
        </mxCell>
        <mxCell id="abvE3q79lOQdrKa4CvGL-49" value="" style="endArrow=none;html=1;edgeStyle=orthogonalEdgeStyle;" parent="WIyWlLk6GJQsqaUBKTNV-1" source="abvE3q79lOQdrKa4CvGL-6" target="abvE3q79lOQdrKa4CvGL-23" edge="1">
          <mxGeometry relative="1" as="geometry">
            <mxPoint x="440" y="92.5" as="sourcePoint"/>
            <mxPoint x="560" y="92.5" as="targetPoint"/>
          </mxGeometry>
        </mxCell>
        <mxCell id="abvE3q79lOQdrKa4CvGL-50" value="*" style="resizable=0;html=1;align=left;verticalAlign=bottom;labelBackgroundColor=#ffffff;fontSize=10;" parent="abvE3q79lOQdrKa4CvGL-49" connectable="0" vertex="1">
          <mxGeometry x="-1" relative="1" as="geometry"/>
        </mxCell>
        <mxCell id="abvE3q79lOQdrKa4CvGL-51" value="*" style="resizable=0;html=1;align=right;verticalAlign=bottom;labelBackgroundColor=#ffffff;fontSize=10;" parent="abvE3q79lOQdrKa4CvGL-49" connectable="0" vertex="1">
          <mxGeometry x="1" relative="1" as="geometry"/>
        </mxCell>
        <mxCell id="abvE3q79lOQdrKa4CvGL-56" value="" style="endArrow=none;html=1;edgeStyle=orthogonalEdgeStyle;entryX=0.558;entryY=0.002;entryDx=0;entryDy=0;entryPerimeter=0;" parent="WIyWlLk6GJQsqaUBKTNV-1" source="abvE3q79lOQdrKa4CvGL-23" target="zkfFHV4jXpPFQw0GAbJ--0" edge="1">
          <mxGeometry relative="1" as="geometry">
            <mxPoint x="670" y="70" as="sourcePoint"/>
            <mxPoint x="820" y="110" as="targetPoint"/>
          </mxGeometry>
        </mxCell>
        <mxCell id="abvE3q79lOQdrKa4CvGL-57" value="parent" style="resizable=0;html=1;align=left;verticalAlign=bottom;labelBackgroundColor=#ffffff;fontSize=10;" parent="abvE3q79lOQdrKa4CvGL-56" connectable="0" vertex="1">
          <mxGeometry x="-1" relative="1" as="geometry"/>
        </mxCell>
        <mxCell id="abvE3q79lOQdrKa4CvGL-58" value="child" style="resizable=0;html=1;align=right;verticalAlign=bottom;labelBackgroundColor=#ffffff;fontSize=10;" parent="abvE3q79lOQdrKa4CvGL-56" connectable="0" vertex="1">
          <mxGeometry x="1" relative="1" as="geometry"/>
        </mxCell>
        <mxCell id="abvE3q79lOQdrKa4CvGL-59" value="Company" style="swimlane;fontStyle=2;align=center;verticalAlign=top;childLayout=stackLayout;horizontal=1;startSize=26;horizontalStack=0;resizeParent=1;resizeLast=0;collapsible=1;marginBottom=0;rounded=0;shadow=0;strokeWidth=1;" parent="WIyWlLk6GJQsqaUBKTNV-1" vertex="1">
          <mxGeometry x="640" y="522" width="160" height="138" as="geometry">
            <mxRectangle x="230" y="140" width="160" height="26" as="alternateBounds"/>
          </mxGeometry>
        </mxCell>
        <mxCell id="abvE3q79lOQdrKa4CvGL-60" value="Id" style="text;align=left;verticalAlign=top;spacingLeft=4;spacingRight=4;overflow=hidden;rotatable=0;points=[[0,0.5],[1,0.5]];portConstraint=eastwest;" parent="abvE3q79lOQdrKa4CvGL-59" vertex="1">
          <mxGeometry y="26" width="160" height="26" as="geometry"/>
        </mxCell>
        <mxCell id="abvE3q79lOQdrKa4CvGL-63" value="" style="line;html=1;strokeWidth=1;align=left;verticalAlign=middle;spacingTop=-1;spacingLeft=3;spacingRight=3;rotatable=0;labelPosition=right;points=[];portConstraint=eastwest;" parent="abvE3q79lOQdrKa4CvGL-59" vertex="1">
          <mxGeometry y="52" width="160" height="58" as="geometry"/>
        </mxCell>
        <mxCell id="abvE3q79lOQdrKa4CvGL-69" value="Project" style="swimlane;fontStyle=2;align=center;verticalAlign=top;childLayout=stackLayout;horizontal=1;startSize=26;horizontalStack=0;resizeParent=1;resizeLast=0;collapsible=1;marginBottom=0;rounded=0;shadow=0;strokeWidth=1;" parent="WIyWlLk6GJQsqaUBKTNV-1" vertex="1">
          <mxGeometry x="280" y="420" width="160" height="138" as="geometry">
            <mxRectangle x="230" y="140" width="160" height="26" as="alternateBounds"/>
          </mxGeometry>
        </mxCell>
        <mxCell id="abvE3q79lOQdrKa4CvGL-70" value="Id" style="text;align=left;verticalAlign=top;spacingLeft=4;spacingRight=4;overflow=hidden;rotatable=0;points=[[0,0.5],[1,0.5]];portConstraint=eastwest;" parent="abvE3q79lOQdrKa4CvGL-69" vertex="1">
          <mxGeometry y="26" width="160" height="26" as="geometry"/>
        </mxCell>
        <mxCell id="abvE3q79lOQdrKa4CvGL-71" value="" style="line;html=1;strokeWidth=1;align=left;verticalAlign=middle;spacingTop=-1;spacingLeft=3;spacingRight=3;rotatable=0;labelPosition=right;points=[];portConstraint=eastwest;" parent="abvE3q79lOQdrKa4CvGL-69" vertex="1">
          <mxGeometry y="52" width="160" height="58" as="geometry"/>
        </mxCell>
        <mxCell id="abvE3q79lOQdrKa4CvGL-75" value="Plan" style="swimlane;fontStyle=2;align=center;verticalAlign=top;childLayout=stackLayout;horizontal=1;startSize=26;horizontalStack=0;resizeParent=1;resizeLast=0;collapsible=1;marginBottom=0;rounded=0;shadow=0;strokeWidth=1;" parent="WIyWlLk6GJQsqaUBKTNV-1" vertex="1">
          <mxGeometry x="460" y="660" width="160" height="140" as="geometry">
            <mxRectangle x="230" y="140" width="160" height="26" as="alternateBounds"/>
          </mxGeometry>
        </mxCell>
        <mxCell id="abvE3q79lOQdrKa4CvGL-76" value="Id" style="text;align=left;verticalAlign=top;spacingLeft=4;spacingRight=4;overflow=hidden;rotatable=0;points=[[0,0.5],[1,0.5]];portConstraint=eastwest;" parent="abvE3q79lOQdrKa4CvGL-75" vertex="1">
          <mxGeometry y="26" width="160" height="26" as="geometry"/>
        </mxCell>
        <mxCell id="abvE3q79lOQdrKa4CvGL-77" value="" style="line;html=1;strokeWidth=1;align=left;verticalAlign=middle;spacingTop=-1;spacingLeft=3;spacingRight=3;rotatable=0;labelPosition=right;points=[];portConstraint=eastwest;" parent="abvE3q79lOQdrKa4CvGL-75" vertex="1">
          <mxGeometry y="52" width="160" height="58" as="geometry"/>
        </mxCell>
        <mxCell id="abvE3q79lOQdrKa4CvGL-78" value="Rules" style="swimlane;fontStyle=2;align=center;verticalAlign=top;childLayout=stackLayout;horizontal=1;startSize=26;horizontalStack=0;resizeParent=1;resizeLast=0;collapsible=1;marginBottom=0;rounded=0;shadow=0;strokeWidth=1;" parent="WIyWlLk6GJQsqaUBKTNV-1" vertex="1">
          <mxGeometry x="460" y="880" width="160" height="138" as="geometry">
            <mxRectangle x="230" y="140" width="160" height="26" as="alternateBounds"/>
          </mxGeometry>
        </mxCell>
        <mxCell id="abvE3q79lOQdrKa4CvGL-79" value="Id" style="text;align=left;verticalAlign=top;spacingLeft=4;spacingRight=4;overflow=hidden;rotatable=0;points=[[0,0.5],[1,0.5]];portConstraint=eastwest;" parent="abvE3q79lOQdrKa4CvGL-78" vertex="1">
          <mxGeometry y="26" width="160" height="26" as="geometry"/>
        </mxCell>
        <mxCell id="abvE3q79lOQdrKa4CvGL-80" value="" style="line;html=1;strokeWidth=1;align=left;verticalAlign=middle;spacingTop=-1;spacingLeft=3;spacingRight=3;rotatable=0;labelPosition=right;points=[];portConstraint=eastwest;" parent="abvE3q79lOQdrKa4CvGL-78" vertex="1">
          <mxGeometry y="52" width="160" height="58" as="geometry"/>
        </mxCell>
        <mxCell id="abvE3q79lOQdrKa4CvGL-81" value="Tasks" style="swimlane;fontStyle=2;align=center;verticalAlign=top;childLayout=stackLayout;horizontal=1;startSize=26;horizontalStack=0;resizeParent=1;resizeLast=0;collapsible=1;marginBottom=0;rounded=0;shadow=0;strokeWidth=1;" parent="WIyWlLk6GJQsqaUBKTNV-1" vertex="1">
          <mxGeometry x="40" y="270" width="160" height="138" as="geometry">
            <mxRectangle x="230" y="140" width="160" height="26" as="alternateBounds"/>
          </mxGeometry>
        </mxCell>
        <mxCell id="abvE3q79lOQdrKa4CvGL-82" value="Id" style="text;align=left;verticalAlign=top;spacingLeft=4;spacingRight=4;overflow=hidden;rotatable=0;points=[[0,0.5],[1,0.5]];portConstraint=eastwest;" parent="abvE3q79lOQdrKa4CvGL-81" vertex="1">
          <mxGeometry y="26" width="160" height="26" as="geometry"/>
        </mxCell>
        <mxCell id="abvE3q79lOQdrKa4CvGL-83" value="" style="line;html=1;strokeWidth=1;align=left;verticalAlign=middle;spacingTop=-1;spacingLeft=3;spacingRight=3;rotatable=0;labelPosition=right;points=[];portConstraint=eastwest;" parent="abvE3q79lOQdrKa4CvGL-81" vertex="1">
          <mxGeometry y="52" width="160" height="58" as="geometry"/>
        </mxCell>
        <mxCell id="abvE3q79lOQdrKa4CvGL-84" value="Sprints&#xa;" style="swimlane;fontStyle=2;align=center;verticalAlign=top;childLayout=stackLayout;horizontal=1;startSize=26;horizontalStack=0;resizeParent=1;resizeLast=0;collapsible=1;marginBottom=0;rounded=0;shadow=0;strokeWidth=1;" parent="WIyWlLk6GJQsqaUBKTNV-1" vertex="1">
          <mxGeometry x="40" y="480" width="160" height="138" as="geometry">
            <mxRectangle x="230" y="140" width="160" height="26" as="alternateBounds"/>
          </mxGeometry>
        </mxCell>
        <mxCell id="abvE3q79lOQdrKa4CvGL-85" value="Id" style="text;align=left;verticalAlign=top;spacingLeft=4;spacingRight=4;overflow=hidden;rotatable=0;points=[[0,0.5],[1,0.5]];portConstraint=eastwest;" parent="abvE3q79lOQdrKa4CvGL-84" vertex="1">
          <mxGeometry y="26" width="160" height="26" as="geometry"/>
        </mxCell>
        <mxCell id="abvE3q79lOQdrKa4CvGL-86" value="" style="line;html=1;strokeWidth=1;align=left;verticalAlign=middle;spacingTop=-1;spacingLeft=3;spacingRight=3;rotatable=0;labelPosition=right;points=[];portConstraint=eastwest;" parent="abvE3q79lOQdrKa4CvGL-84" vertex="1">
          <mxGeometry y="52" width="160" height="58" as="geometry"/>
        </mxCell>
        <mxCell id="abvE3q79lOQdrKa4CvGL-87" value="Trackings" style="swimlane;fontStyle=2;align=center;verticalAlign=top;childLayout=stackLayout;horizontal=1;startSize=26;horizontalStack=0;resizeParent=1;resizeLast=0;collapsible=1;marginBottom=0;rounded=0;shadow=0;strokeWidth=1;" parent="WIyWlLk6GJQsqaUBKTNV-1" vertex="1">
          <mxGeometry x="40" y="670" width="160" height="138" as="geometry">
            <mxRectangle x="230" y="140" width="160" height="26" as="alternateBounds"/>
          </mxGeometry>
        </mxCell>
        <mxCell id="abvE3q79lOQdrKa4CvGL-88" value="Id" style="text;align=left;verticalAlign=top;spacingLeft=4;spacingRight=4;overflow=hidden;rotatable=0;points=[[0,0.5],[1,0.5]];portConstraint=eastwest;" parent="abvE3q79lOQdrKa4CvGL-87" vertex="1">
          <mxGeometry y="26" width="160" height="26" as="geometry"/>
        </mxCell>
        <mxCell id="abvE3q79lOQdrKa4CvGL-89" value="" style="line;html=1;strokeWidth=1;align=left;verticalAlign=middle;spacingTop=-1;spacingLeft=3;spacingRight=3;rotatable=0;labelPosition=right;points=[];portConstraint=eastwest;" parent="abvE3q79lOQdrKa4CvGL-87" vertex="1">
          <mxGeometry y="52" width="160" height="58" as="geometry"/>
        </mxCell>
        <mxCell id="abvE3q79lOQdrKa4CvGL-90" value="" style="endArrow=none;html=1;edgeStyle=orthogonalEdgeStyle;" parent="WIyWlLk6GJQsqaUBKTNV-1" source="abvE3q79lOQdrKa4CvGL-69" target="zkfFHV4jXpPFQw0GAbJ--0" edge="1">
          <mxGeometry relative="1" as="geometry">
            <mxPoint x="590" y="350" as="sourcePoint"/>
            <mxPoint x="750" y="350" as="targetPoint"/>
            <Array as="points">
              <mxPoint x="590" y="249"/>
            </Array>
          </mxGeometry>
        </mxCell>
        <mxCell id="abvE3q79lOQdrKa4CvGL-91" value="*" style="resizable=0;html=1;align=left;verticalAlign=bottom;labelBackgroundColor=#ffffff;fontSize=10;" parent="abvE3q79lOQdrKa4CvGL-90" connectable="0" vertex="1">
          <mxGeometry x="-1" relative="1" as="geometry"/>
        </mxCell>
        <mxCell id="abvE3q79lOQdrKa4CvGL-92" value="*" style="resizable=0;html=1;align=right;verticalAlign=bottom;labelBackgroundColor=#ffffff;fontSize=10;" parent="abvE3q79lOQdrKa4CvGL-90" connectable="0" vertex="1">
          <mxGeometry x="1" relative="1" as="geometry"/>
        </mxCell>
        <mxCell id="ANOKaQisRn6H8vADbr7t-21" style="edgeStyle=orthogonalEdgeStyle;rounded=0;orthogonalLoop=1;jettySize=auto;html=1;" edge="1" parent="WIyWlLk6GJQsqaUBKTNV-1" source="abvE3q79lOQdrKa4CvGL-93">
          <mxGeometry relative="1" as="geometry">
            <mxPoint x="560" y="490" as="targetPoint"/>
          </mxGeometry>
        </mxCell>
        <mxCell id="abvE3q79lOQdrKa4CvGL-93" value="UserProject" style="swimlane;fontStyle=2;align=center;verticalAlign=top;childLayout=stackLayout;horizontal=1;startSize=26;horizontalStack=0;resizeParent=1;resizeLast=0;collapsible=1;marginBottom=0;rounded=0;shadow=0;strokeWidth=1;" parent="WIyWlLk6GJQsqaUBKTNV-1" vertex="1">
          <mxGeometry x="400" y="220" width="160" height="138" as="geometry">
            <mxRectangle x="230" y="140" width="160" height="26" as="alternateBounds"/>
          </mxGeometry>
        </mxCell>
        <mxCell id="abvE3q79lOQdrKa4CvGL-94" value="Id" style="text;align=left;verticalAlign=top;spacingLeft=4;spacingRight=4;overflow=hidden;rotatable=0;points=[[0,0.5],[1,0.5]];portConstraint=eastwest;" parent="abvE3q79lOQdrKa4CvGL-93" vertex="1">
          <mxGeometry y="26" width="160" height="26" as="geometry"/>
        </mxCell>
        <mxCell id="abvE3q79lOQdrKa4CvGL-95" value="" style="line;html=1;strokeWidth=1;align=left;verticalAlign=middle;spacingTop=-1;spacingLeft=3;spacingRight=3;rotatable=0;labelPosition=right;points=[];portConstraint=eastwest;" parent="abvE3q79lOQdrKa4CvGL-93" vertex="1">
          <mxGeometry y="52" width="160" height="58" as="geometry"/>
        </mxCell>
        <mxCell id="1wP7LT2ohx5aD7G-Ech4-6" value="" style="endArrow=none;html=1;edgeStyle=orthogonalEdgeStyle;entryX=0.5;entryY=0;entryDx=0;entryDy=0;" parent="WIyWlLk6GJQsqaUBKTNV-1" source="zkfFHV4jXpPFQw0GAbJ--0" target="abvE3q79lOQdrKa4CvGL-59" edge="1">
          <mxGeometry relative="1" as="geometry">
            <mxPoint x="780" y="320" as="sourcePoint"/>
            <mxPoint x="930" y="310" as="targetPoint"/>
            <Array as="points">
              <mxPoint x="810" y="249"/>
              <mxPoint x="810" y="430"/>
            </Array>
          </mxGeometry>
        </mxCell>
        <mxCell id="1wP7LT2ohx5aD7G-Ech4-7" value="*" style="resizable=0;html=1;align=left;verticalAlign=bottom;labelBackgroundColor=#ffffff;fontSize=10;" parent="1wP7LT2ohx5aD7G-Ech4-6" connectable="0" vertex="1">
          <mxGeometry x="-1" relative="1" as="geometry"/>
        </mxCell>
        <mxCell id="1wP7LT2ohx5aD7G-Ech4-8" value="1" style="resizable=0;html=1;align=right;verticalAlign=bottom;labelBackgroundColor=#ffffff;fontSize=10;" parent="1wP7LT2ohx5aD7G-Ech4-6" connectable="0" vertex="1">
          <mxGeometry x="1" relative="1" as="geometry"/>
        </mxCell>
        <mxCell id="abvE3q79lOQdrKa4CvGL-72" value="Settings" style="swimlane;fontStyle=2;align=center;verticalAlign=top;childLayout=stackLayout;horizontal=1;startSize=26;horizontalStack=0;resizeParent=1;resizeLast=0;collapsible=1;marginBottom=0;rounded=0;shadow=0;strokeWidth=1;" parent="WIyWlLk6GJQsqaUBKTNV-1" vertex="1">
          <mxGeometry x="640" y="742" width="160" height="138" as="geometry">
            <mxRectangle x="230" y="140" width="160" height="26" as="alternateBounds"/>
          </mxGeometry>
        </mxCell>
        <mxCell id="abvE3q79lOQdrKa4CvGL-73" value="Id" style="text;align=left;verticalAlign=top;spacingLeft=4;spacingRight=4;overflow=hidden;rotatable=0;points=[[0,0.5],[1,0.5]];portConstraint=eastwest;" parent="abvE3q79lOQdrKa4CvGL-72" vertex="1">
          <mxGeometry y="26" width="160" height="26" as="geometry"/>
        </mxCell>
        <mxCell id="abvE3q79lOQdrKa4CvGL-74" value="" style="line;html=1;strokeWidth=1;align=left;verticalAlign=middle;spacingTop=-1;spacingLeft=3;spacingRight=3;rotatable=0;labelPosition=right;points=[];portConstraint=eastwest;" parent="abvE3q79lOQdrKa4CvGL-72" vertex="1">
          <mxGeometry y="52" width="160" height="58" as="geometry"/>
        </mxCell>
        <mxCell id="1wP7LT2ohx5aD7G-Ech4-9" value="" style="endArrow=none;html=1;edgeStyle=orthogonalEdgeStyle;" parent="WIyWlLk6GJQsqaUBKTNV-1" source="abvE3q79lOQdrKa4CvGL-59" target="abvE3q79lOQdrKa4CvGL-72" edge="1">
          <mxGeometry relative="1" as="geometry">
            <mxPoint x="10" y="800" as="sourcePoint"/>
            <mxPoint x="170" y="800" as="targetPoint"/>
            <Array as="points">
              <mxPoint x="720" y="690"/>
              <mxPoint x="820" y="690"/>
              <mxPoint x="820" y="811"/>
            </Array>
          </mxGeometry>
        </mxCell>
        <mxCell id="1wP7LT2ohx5aD7G-Ech4-10" value="*" style="resizable=0;html=1;align=left;verticalAlign=bottom;labelBackgroundColor=#ffffff;fontSize=10;" parent="1wP7LT2ohx5aD7G-Ech4-9" connectable="0" vertex="1">
          <mxGeometry x="-1" relative="1" as="geometry"/>
        </mxCell>
        <mxCell id="1wP7LT2ohx5aD7G-Ech4-11" value="1" style="resizable=0;html=1;align=right;verticalAlign=bottom;labelBackgroundColor=#ffffff;fontSize=10;" parent="1wP7LT2ohx5aD7G-Ech4-9" connectable="0" vertex="1">
          <mxGeometry x="1" relative="1" as="geometry"/>
        </mxCell>
        <mxCell id="1wP7LT2ohx5aD7G-Ech4-12" value="" style="endArrow=none;html=1;edgeStyle=orthogonalEdgeStyle;" parent="WIyWlLk6GJQsqaUBKTNV-1" source="abvE3q79lOQdrKa4CvGL-75" target="abvE3q79lOQdrKa4CvGL-59" edge="1">
          <mxGeometry relative="1" as="geometry">
            <mxPoint x="600" y="640" as="sourcePoint"/>
            <mxPoint x="760" y="640" as="targetPoint"/>
            <Array as="points">
              <mxPoint x="540" y="570"/>
            </Array>
          </mxGeometry>
        </mxCell>
        <mxCell id="1wP7LT2ohx5aD7G-Ech4-13" value="1" style="resizable=0;html=1;align=left;verticalAlign=bottom;labelBackgroundColor=#ffffff;fontSize=10;" parent="1wP7LT2ohx5aD7G-Ech4-12" connectable="0" vertex="1">
          <mxGeometry x="-1" relative="1" as="geometry"/>
        </mxCell>
        <mxCell id="1wP7LT2ohx5aD7G-Ech4-14" value="*" style="resizable=0;html=1;align=right;verticalAlign=bottom;labelBackgroundColor=#ffffff;fontSize=10;" parent="1wP7LT2ohx5aD7G-Ech4-12" connectable="0" vertex="1">
          <mxGeometry x="1" relative="1" as="geometry"/>
        </mxCell>
        <mxCell id="1wP7LT2ohx5aD7G-Ech4-15" value="" style="endArrow=none;html=1;edgeStyle=orthogonalEdgeStyle;" parent="WIyWlLk6GJQsqaUBKTNV-1" source="abvE3q79lOQdrKa4CvGL-81" target="abvE3q79lOQdrKa4CvGL-69" edge="1">
          <mxGeometry relative="1" as="geometry">
            <mxPoint x="380" y="380" as="sourcePoint"/>
            <mxPoint x="540" y="380" as="targetPoint"/>
          </mxGeometry>
        </mxCell>
        <mxCell id="1wP7LT2ohx5aD7G-Ech4-16" value="*" style="resizable=0;html=1;align=left;verticalAlign=bottom;labelBackgroundColor=#ffffff;fontSize=10;" parent="1wP7LT2ohx5aD7G-Ech4-15" connectable="0" vertex="1">
          <mxGeometry x="-1" relative="1" as="geometry"/>
        </mxCell>
        <mxCell id="1wP7LT2ohx5aD7G-Ech4-17" value="1" style="resizable=0;html=1;align=right;verticalAlign=bottom;labelBackgroundColor=#ffffff;fontSize=10;" parent="1wP7LT2ohx5aD7G-Ech4-15" connectable="0" vertex="1">
          <mxGeometry x="1" relative="1" as="geometry"/>
        </mxCell>
        <mxCell id="1wP7LT2ohx5aD7G-Ech4-22" value="" style="endArrow=none;html=1;edgeStyle=orthogonalEdgeStyle;" parent="WIyWlLk6GJQsqaUBKTNV-1" source="abvE3q79lOQdrKa4CvGL-84" target="abvE3q79lOQdrKa4CvGL-81" edge="1">
          <mxGeometry relative="1" as="geometry">
            <mxPoint x="10" y="790" as="sourcePoint"/>
            <mxPoint x="170" y="790" as="targetPoint"/>
          </mxGeometry>
        </mxCell>
        <mxCell id="1wP7LT2ohx5aD7G-Ech4-23" value="*" style="resizable=0;html=1;align=left;verticalAlign=bottom;labelBackgroundColor=#ffffff;fontSize=10;" parent="1wP7LT2ohx5aD7G-Ech4-22" connectable="0" vertex="1">
          <mxGeometry x="-1" relative="1" as="geometry"/>
        </mxCell>
        <mxCell id="1wP7LT2ohx5aD7G-Ech4-24" value="1" style="resizable=0;html=1;align=right;verticalAlign=bottom;labelBackgroundColor=#ffffff;fontSize=10;" parent="1wP7LT2ohx5aD7G-Ech4-22" connectable="0" vertex="1">
          <mxGeometry x="1" relative="1" as="geometry"/>
        </mxCell>
        <mxCell id="ANOKaQisRn6H8vADbr7t-9" value="" style="endArrow=none;html=1;edgeStyle=orthogonalEdgeStyle;" edge="1" parent="WIyWlLk6GJQsqaUBKTNV-1" source="abvE3q79lOQdrKa4CvGL-78" target="abvE3q79lOQdrKa4CvGL-75">
          <mxGeometry relative="1" as="geometry">
            <mxPoint x="400" y="650" as="sourcePoint"/>
            <mxPoint x="560" y="650" as="targetPoint"/>
          </mxGeometry>
        </mxCell>
        <mxCell id="ANOKaQisRn6H8vADbr7t-10" value="*" style="resizable=0;html=1;align=left;verticalAlign=bottom;labelBackgroundColor=#ffffff;fontSize=10;" connectable="0" vertex="1" parent="ANOKaQisRn6H8vADbr7t-9">
          <mxGeometry x="-1" relative="1" as="geometry"/>
        </mxCell>
        <mxCell id="ANOKaQisRn6H8vADbr7t-11" value="*" style="resizable=0;html=1;align=right;verticalAlign=bottom;labelBackgroundColor=#ffffff;fontSize=10;" connectable="0" vertex="1" parent="ANOKaQisRn6H8vADbr7t-9">
          <mxGeometry x="1" relative="1" as="geometry"/>
        </mxCell>
        <mxCell id="ANOKaQisRn6H8vADbr7t-12" value="" style="endArrow=none;html=1;edgeStyle=orthogonalEdgeStyle;" edge="1" parent="WIyWlLk6GJQsqaUBKTNV-1" source="abvE3q79lOQdrKa4CvGL-87" target="abvE3q79lOQdrKa4CvGL-84">
          <mxGeometry relative="1" as="geometry">
            <mxPoint x="10" y="1040" as="sourcePoint"/>
            <mxPoint x="170" y="1040" as="targetPoint"/>
            <Array as="points">
              <mxPoint x="230" y="739"/>
              <mxPoint x="230" y="549"/>
            </Array>
          </mxGeometry>
        </mxCell>
        <mxCell id="ANOKaQisRn6H8vADbr7t-13" value="1" style="resizable=0;html=1;align=left;verticalAlign=bottom;labelBackgroundColor=#ffffff;fontSize=10;" connectable="0" vertex="1" parent="ANOKaQisRn6H8vADbr7t-12">
          <mxGeometry x="-1" relative="1" as="geometry"/>
        </mxCell>
        <mxCell id="ANOKaQisRn6H8vADbr7t-14" value="*" style="resizable=0;html=1;align=right;verticalAlign=bottom;labelBackgroundColor=#ffffff;fontSize=10;" connectable="0" vertex="1" parent="ANOKaQisRn6H8vADbr7t-12">
          <mxGeometry x="1" relative="1" as="geometry"/>
        </mxCell>
      </root>
    </mxGraphModel>
  </diagram>
  <diagram id="VjYnvwbV9iyKQr37TPsQ" name="Page-2">
    <mxGraphModel dx="928" dy="500" grid="1" gridSize="10" guides="1" tooltips="1" connect="1" arrows="1" fold="1" page="1" pageScale="1" pageWidth="850" pageHeight="1100" math="0" shadow="0">
      <root>
        <mxCell id="pBIo856uswLs_fmRvrkj-0"/>
        <mxCell id="pBIo856uswLs_fmRvrkj-1" parent="pBIo856uswLs_fmRvrkj-0"/>
      </root>
    </mxGraphModel>
  </diagram>
</mxfile>
